<svg xmlns="http://www.w3.org/2000/svg" viewBox="0 0 100 100" width="100px" height="100px">
    <path fill="green" d="M16.667,10v23.333H35.29l-5.286-5.287l4.713-4.713L45.693,34.31c1.295,1.295,1.295,3.418,0,4.713L34.717,50l-4.713-4.713	L35.29,40H10v6.667h6.667V90L35,83.333L53.333,90l18.334-6.667L90,90V10H16.667z M63.333,40H70c5.521,0,10,4.479,10,10h-0.007	c0,5.521-4.473,9.993-9.993,10v6.667h-6.667V60c-5.521,0-10-4.479-10-10H60c0,1.843,1.491,3.333,3.333,3.333h6.66	c1.843,0,3.334-1.49,3.334-3.333h0.006c0-1.842-1.49-3.333-3.333-3.333h-6.667c-5.521,0-10-4.479-10-10c0-5.521,4.479-10,10-10V20	H70v6.667c5.521,0,10,4.479,10,10h-6.667c0-1.842-1.49-3.333-3.333-3.333h-6.667c-1.842,0-3.333,1.491-3.333,3.333	C60,38.509,61.491,40,63.333,40z"/>
</svg>